# xmcd
#
# Track frame offsets:
#	150
#	21075
#	37275
#	54075
#	71775
#	90825
#	106875
#	123675
#	140550
#	157650
#	177076
#	196651
#	216451
#
# Disc length: 3090 seconds
#
# Revision: 3
# Processed by: cddbd v1.5.2PL0 Copyright (c) Steve Scherf et al.
# Submitted via: audiograbber 1.83.01
#
DISCID=ae0c100d
DTITLE=Shania Twain - SKG927
DYEAR=2000
DGENRE=Karaoke
TTITLE0=From This Moment On
TTITLE1=You're Still The One
TTITLE2=Don't Be Stupid
TTITLE3=God Bless The Child
TTITLE4=Home Ain't Where The House Is
TTITLE5=Honey I'm Home
TTITLE6=Love Gets Me Every Time
TTITLE7=Man I Feel Like A Woman
TTITLE8=That Don't Impress Me Much
TTITLE9=Woman In Me, The
TTITLE10=You Win My Love
TTITLE11=I'm Outta Here
TTITLE12=I'm Holdin' On To Love (To Save My Life)
EXTD=
EXTT0=
EXTT1=
EXTT2=
EXTT3=
EXTT4=
EXTT5=
EXTT6=
EXTT7=
EXTT8=
EXTT9=
EXTT10=
EXTT11=
EXTT12=
PLAYORDER=
